<svg width="17" height="17" viewBox="0 0 17 17" fill="none" xmlns="http://www.w3.org/2000/svg">
<g opacity="0.793631">
<path d="M16.9283 4.93432C16.889 4.04256 16.7447 3.42949 16.5382 2.89825C16.3251 2.33435 15.9972 1.8295 15.5676 1.40981C15.148 0.983586 14.6398 0.652394 14.0824 0.442614C13.5481 0.236035 12.9382 0.091827 12.0465 0.0525091C11.148 0.00986147 10.8628 0 8.58418 0C6.30554 0 6.02033 0.00986147 5.12524 0.0491793C4.23348 0.0884971 3.62041 0.232833 3.08929 0.439284C2.52527 0.652394 2.02041 0.980256 1.60072 1.40981C1.1745 1.8295 0.84344 2.33768 0.633532 2.89505C0.426953 3.42949 0.282745 4.03923 0.243427 4.93099C0.200779 5.82941 0.190918 6.11463 0.190918 8.39327C0.190918 10.6719 0.200779 10.9571 0.240097 11.8522C0.279415 12.744 0.423751 13.357 0.63033 13.8883C0.84344 14.4522 1.1745 14.957 1.60072 15.3767C2.02041 15.8029 2.5286 16.1341 3.08596 16.3439C3.62041 16.5505 4.23015 16.6947 5.12204 16.734C6.017 16.7735 6.30234 16.7832 8.58098 16.7832C10.8596 16.7832 11.1448 16.7735 12.0399 16.734C12.9317 16.6947 13.5448 16.5505 14.0759 16.3439C15.2038 15.9078 16.0956 15.0161 16.5316 13.8883C16.7381 13.3538 16.8824 12.744 16.9217 11.8522C16.9611 10.9571 16.9709 10.6719 16.9709 8.39327C16.9709 6.11463 16.9676 5.82941 16.9283 4.93432ZM15.4169 11.7866C15.3808 12.6063 15.2431 13.0489 15.1284 13.344C14.8463 14.0751 14.2661 14.6554 13.5349 14.9374C13.2398 15.0522 12.794 15.1899 11.9776 15.2259C11.0923 15.2653 10.8268 15.275 8.58751 15.275C6.34819 15.275 6.07937 15.2653 5.19734 15.2259C4.37769 15.1899 3.93508 15.0522 3.64 14.9374C3.27615 14.803 2.94496 14.5899 2.67614 14.3112C2.39745 14.039 2.18434 13.7112 2.04987 13.3473C1.93512 13.0522 1.79744 12.6063 1.76145 11.79C1.72201 10.9047 1.71227 10.6391 1.71227 8.3998C1.71227 6.16047 1.72201 5.89165 1.76145 5.00976C1.79744 4.1901 1.93512 3.74749 2.04987 3.45241C2.18434 3.08843 2.39745 2.75737 2.67947 2.48842C2.95149 2.20974 3.27935 1.99663 3.64333 1.86228C3.93841 1.74753 4.38435 1.60985 5.20067 1.57374C6.0859 1.53442 6.35152 1.52456 8.59072 1.52456C10.8334 1.52456 11.0989 1.53442 11.9809 1.57374C12.8005 1.60985 13.2432 1.74753 13.5382 1.86228C13.9021 1.99663 14.2333 2.20974 14.5021 2.48842C14.7808 2.76057 14.9939 3.08843 15.1284 3.45241C15.2431 3.74749 15.3808 4.1933 15.4169 5.00976C15.4562 5.89498 15.4661 6.16047 15.4661 8.3998C15.4661 10.6391 15.4562 10.9014 15.4169 11.7866Z" fill="white"/>
<path d="M8.58421 4.08179C6.20401 4.08179 4.27283 6.01285 4.27283 8.39317C4.27283 10.7735 6.20401 12.7046 8.58421 12.7046C10.9645 12.7046 12.8956 10.7735 12.8956 8.39317C12.8956 6.01285 10.9645 4.08179 8.58421 4.08179ZM8.58421 11.1899C7.04005 11.1899 5.78752 9.93745 5.78752 8.39317C5.78752 6.84889 7.04005 5.59649 8.58421 5.59649C10.1285 5.59649 11.3809 6.84889 11.3809 8.39317C11.3809 9.93745 10.1285 11.1899 8.58421 11.1899Z" fill="white"/>
<path d="M14.0727 3.91154C14.0727 4.46737 13.622 4.91805 13.0661 4.91805C12.5103 4.91805 12.0596 4.46737 12.0596 3.91154C12.0596 3.35558 12.5103 2.90503 13.0661 2.90503C13.622 2.90503 14.0727 3.35558 14.0727 3.91154Z" fill="white"/>
</g>
</svg>
