<svg width="17" height="17" viewBox="0 0 17 17" fill="none" xmlns="http://www.w3.org/2000/svg">
<g opacity="0.793631">
<path d="M16.7715 16.7761V16.7754H16.7757V10.5868C16.7757 7.55923 16.124 5.22705 12.5846 5.22705C10.8831 5.22705 9.74125 6.16076 9.27509 7.04596H9.22588V5.5097H5.87V16.7754H9.36439V11.1971C9.36439 9.72828 9.64282 8.30802 11.4617 8.30802C13.2539 8.30802 13.2806 9.98421 13.2806 11.2913V16.7761H16.7715Z" fill="white"/>
<path d="M0.277954 5.5105H3.77657V16.7762H0.277954L0.277954 5.5105Z" fill="white"/>
<path d="M2.02584 0C0.90721 0 -0.000488281 0.907699 -0.000488281 2.02633C-0.000488281 3.14495 0.90721 4.07164 2.02584 4.07164C3.14447 4.07164 4.05217 3.14495 4.05217 2.02633C4.05146 0.907699 3.14376 0 2.02584 0Z" fill="white"/>
</g>
</svg>
