<svg width="21" height="12" viewBox="0 0 21 12" fill="none" xmlns="http://www.w3.org/2000/svg">
<g opacity="0.793631">
<path d="M12.569 0.184346C13.1239 0.262811 13.6672 0.402186 14.2042 0.567176C15.1415 0.855807 16.0259 1.25679 16.8577 1.77697C16.9156 1.81288 16.9929 1.83567 17.061 1.83567C18.0381 1.83971 19.0147 1.83829 19.991 1.8391C20.0696 1.8391 20.1479 1.84737 20.2263 1.85181C20.2263 1.87097 20.2292 1.87904 20.2259 1.88347C20.1804 1.95367 20.1342 2.02285 20.0884 2.09284C19.757 2.60112 19.4738 3.13281 19.3066 3.72057C19.2884 3.7837 19.2846 3.83654 19.3274 3.89847C20.1971 5.1474 20.4746 6.51856 20.1112 7.99662C19.7925 9.29295 19.0494 10.3037 17.9203 11.0193C17.1133 11.531 16.2218 11.7747 15.2693 11.7799C14.8692 11.7823 14.471 11.7285 14.0801 11.6272C13.1277 11.3802 12.3112 10.9053 11.6383 10.1863C11.5496 10.0919 11.4661 9.99326 11.3715 9.88656C11.0157 10.4168 10.6655 10.9384 10.3069 11.4738C9.94969 10.94 9.60437 10.4235 9.25987 9.90895C9.23607 9.92145 9.22921 9.92287 9.22457 9.92731C9.2167 9.93375 9.21005 9.94162 9.2038 9.94909C8.38993 10.9102 7.3661 11.4994 6.11878 11.6964C5.42493 11.8063 4.73773 11.7668 4.06385 11.5811C3.1088 11.3186 2.29715 10.8148 1.64142 10.0713C1.00062 9.34439 0.60206 8.50047 0.452398 7.54099C0.281154 6.64543 0.489713 5.78195 0.541752 5.57238C0.692624 4.96325 0.955642 4.40393 1.31669 3.88959C1.3421 3.85309 1.35098 3.78854 1.33887 3.74497C1.19163 3.20502 0.937892 2.71388 0.640787 2.24351C0.565351 2.12391 0.474989 2.01317 0.391485 1.8984C0.391485 1.88529 0.391485 1.87178 0.391485 1.85846C0.408226 1.86049 0.424765 1.86371 0.441103 1.86371C1.44073 1.86411 2.44016 1.86451 3.43979 1.8625C3.48336 1.8625 3.53177 1.84455 3.56888 1.82075C4.2712 1.37015 5.01951 1.01314 5.80574 0.735194C6.37272 0.535106 6.9516 0.378987 7.54198 0.264625C8.1136 0.154094 8.68825 0.0762358 9.26894 0.0379152C10.6847 -0.0710058 11.8162 0.0788565 12.569 0.184346ZM11.3158 6.78622C11.3158 8.98133 13.0968 10.7747 15.2841 10.7662C17.4796 10.7583 19.2525 9.01542 19.2509 6.7961C19.2493 4.50902 17.3941 2.78972 15.1989 2.8343C13.0319 2.87928 11.3356 4.626 11.3158 6.78622ZM5.36341 2.81917C3.2282 2.80061 1.36651 4.58264 1.40382 6.85258C1.43851 8.96943 3.18323 10.764 5.40778 10.7448C7.58293 10.7262 9.33127 8.95006 9.3353 6.79913C9.33873 4.58929 7.56901 2.81917 5.36341 2.81917ZM5.56027 1.78363C6.76644 1.85725 7.82598 2.2776 8.72112 3.09166C9.61446 3.90412 10.1379 4.91766 10.3281 6.10951C10.5237 4.93178 11.0334 3.92771 11.91 3.12333C12.788 2.31814 13.8334 1.89558 15.0198 1.80623C13.612 1.18034 12.1274 0.914504 10.5994 0.885058C8.86272 0.850972 7.17347 1.10693 5.56027 1.78363Z" fill="white"/>
<path d="M15.2759 4.28185C16.6344 4.27964 17.7347 5.37406 17.7347 6.73111C17.7347 8.09339 16.6531 9.14647 15.3772 9.19508C13.9522 9.24974 12.812 8.11437 12.8124 6.73715C12.8136 5.34421 13.9619 4.25885 15.2759 4.28185ZM16.8783 6.73715C16.8776 5.85169 16.1618 5.13202 15.2824 5.13202C14.3929 5.13202 13.6688 5.84786 13.6652 6.7307C13.6619 7.60971 14.3897 8.34108 15.2709 8.3435C16.1535 8.34693 16.8787 7.62101 16.8783 6.73715Z" fill="white"/>
<path d="M5.31093 4.28187C6.66858 4.28045 7.77047 5.3769 7.76704 6.73374C7.76321 8.10713 6.68068 9.13721 5.42711 9.19429C3.99645 9.25964 2.84211 8.11923 2.84473 6.73455C2.84756 5.33172 4.0037 4.25847 5.31093 4.28187ZM6.91143 6.73173C6.9088 5.84081 6.18833 5.13062 5.28894 5.13223C4.42143 5.13385 3.6945 5.86602 3.69651 6.73676C3.69874 7.61759 4.42486 8.3419 5.30851 8.34432C6.18671 8.34634 6.91364 7.61498 6.91143 6.73173Z" fill="white"/>
<path d="M15.2772 5.92212C15.7274 5.92171 16.0965 6.29102 16.0923 6.73859C16.0879 7.18719 15.725 7.55064 15.2823 7.55085C14.8264 7.55085 14.4599 7.19061 14.4609 6.74425C14.4617 6.28114 14.8178 5.92252 15.2772 5.92212Z" fill="white"/>
<path d="M5.30675 5.9148C5.76381 5.91439 6.1311 6.27946 6.13292 6.7351C6.13473 7.18692 5.76401 7.55783 5.30917 7.55885C4.84344 7.55986 4.48422 7.20002 4.48462 6.73188C4.48462 6.2722 4.84304 5.91539 5.30675 5.9148Z" fill="white"/>
</g>
</svg>
