<svg width="18" height="12" viewBox="0 0 18 12" fill="none" xmlns="http://www.w3.org/2000/svg">
<path opacity="0.793631" d="M17.2386 1.83839C17.0452 1.11952 16.4785 0.552848 15.7597 0.35928C14.4466 0 9.19413 0 9.19413 0C9.19413 0 3.94187 0 2.62878 0.345658C1.92384 0.539021 1.34324 1.11963 1.14988 1.83839C0.804321 3.15138 0.804321 5.87434 0.804321 5.87434C0.804321 5.87434 0.804321 8.61103 1.14988 9.9103C1.34345 10.6291 1.91002 11.1957 2.62888 11.3893C3.9557 11.7487 9.19434 11.7487 9.19434 11.7487C9.19434 11.7487 14.4466 11.7487 15.7597 11.403C16.4786 11.2096 17.0452 10.6429 17.2388 9.92412C17.5843 8.61103 17.5843 5.88817 17.5843 5.88817C17.5843 5.88817 17.5981 3.15138 17.2386 1.83839ZM7.52186 8.38991V3.35877L11.8895 5.87434L7.52186 8.38991Z" fill="white"/>
</svg>
